<svg width="192" height="192" viewBox="0 0 192 192" fill="none" xmlns="http://www.w3.org/2000/svg">
<g clip-path="url(#clip0_31_122)">
<path d="M142.815 63.4074C142.815 37.225 121.589 16 95.4074 16C69.225 16 48 37.225 48 63.4074" stroke="black" stroke-width="12" stroke-linecap="round"/>
<path d="M80 50.3704C83.9274 50.3704 87.1111 47.1866 87.1111 43.2593C87.1111 39.3319 83.9274 36.1481 80 36.1481C76.0726 36.1481 72.8889 39.3319 72.8889 43.2593C72.8889 47.1866 76.0726 50.3704 80 50.3704Z" fill="black"/>
<path d="M110.815 50.3704C114.742 50.3704 117.926 47.1866 117.926 43.2593C117.926 39.3319 114.742 36.1481 110.815 36.1481C106.887 36.1481 103.704 39.3319 103.704 43.2593C103.704 47.1866 106.887 50.3704 110.815 50.3704Z" fill="black"/>
<path d="M80 104.889C86.5456 104.889 91.8519 99.5826 91.8519 93.037C91.8519 86.4914 86.5456 81.1852 80 81.1852C73.4544 81.1852 68.1482 86.4914 68.1482 93.037C68.1482 99.5826 73.4544 104.889 80 104.889Z" fill="black"/>
<path d="M110.815 104.889C117.36 104.889 122.667 99.5826 122.667 93.037C122.667 86.4914 117.36 81.1852 110.815 81.1852C104.269 81.1852 98.963 86.4914 98.963 93.037C98.963 99.5826 104.269 104.889 110.815 104.889Z" fill="black"/>
<path d="M80 147.556C86.5456 147.556 91.8519 142.249 91.8519 135.704C91.8519 129.158 86.5456 123.852 80 123.852C73.4544 123.852 68.1482 129.158 68.1482 135.704C68.1482 142.249 73.4544 147.556 80 147.556Z" fill="black"/>
<path d="M110.815 147.556C117.36 147.556 122.667 142.249 122.667 135.704C122.667 129.158 117.36 123.852 110.815 123.852C104.269 123.852 98.963 129.158 98.963 135.704C98.963 142.249 104.269 147.556 110.815 147.556Z" fill="black"/>
<path d="M133.333 26.0566L143.39 16" stroke="black" stroke-width="12" stroke-linecap="round"/>
<path d="M48.5752 16L58.6318 26.0566" stroke="black" stroke-width="12" stroke-linecap="round"/>
<path d="M60 63V140M131 140V63" stroke="black" stroke-width="12" stroke-linecap="round" stroke-linejoin="round"/>
<path d="M130.963 140.444C130.963 160.082 115.045 176 95.4074 176C75.7707 176 59.8519 160.082 59.8519 140.444" stroke="black" stroke-width="12"/>
</g>
<defs>
<clipPath id="clip0_31_122">
<rect width="192" height="192" fill="white"/>
</clipPath>
</defs>
</svg>
