<svg width="192" height="192" viewBox="0 0 192 192" fill="none" xmlns="http://www.w3.org/2000/svg">
<g clip-path="url(#clip0_31_93)">
<path d="M155.432 83.5304C155.432 83.5307 155.432 83.5309 152.432 83.5309L155.432 83.5304ZM155.432 83.5304C155.432 83.5306 155.432 83.5302 155.432 83.5304ZM48.9505 78.4474L48.9481 78.4494C37.544 88.2193 36.5365 101.271 36.5365 105.622C36.5365 106.219 36.5604 106.676 36.5809 106.968C36.5902 107.101 36.5921 107.151 36.592 107.203C36.5915 110.167 36.5849 143.621 36.5843 159.056L20.7417 146.925L20.74 146.924C20.412 146.625 19.0239 145.198 19.0239 143.194C19.008 115.558 19 83.9212 19 83.8636C19.0004 69.2367 31.0054 53.7113 48.5335 53.7113C60.2092 53.7113 67.913 59.0235 72.7407 64.3012C73.3333 64.949 73.4179 65.6748 72.8737 66.6154C72.2632 67.6706 70.9705 68.6338 69.4514 68.8742C63.3279 69.843 55.9862 72.4324 48.9505 78.4474ZM172.968 48.2258V48.2276C172.984 75.8824 173 106.611 173 106.644C172.999 121.291 161.002 136.8 143.466 136.8C131.794 136.8 124.092 131.495 119.263 126.224C118.669 125.576 118.585 124.852 119.127 123.915C119.735 122.862 121.024 121.9 122.543 121.659C128.669 120.689 136.011 118.094 143.034 112.059C154.475 102.302 155.451 89.2563 155.451 84.8809C155.451 84.4696 155.446 84.1348 155.441 83.8893C155.438 83.7773 155.436 83.6841 155.434 83.6151V83.5969C155.432 83.5377 155.432 83.5167 155.432 83.5153V83.5097V83.5032V83.4959V83.4878V83.4788V83.469V83.4583V83.4468V83.4344V83.4213V83.4073V83.3924V83.3768V83.3603V83.343V83.325V83.306V83.2863V83.2658V83.2445V83.2224V83.1995V83.1757V83.1512V83.1259V83.0999V83.073V83.0454V83.0169V82.9877V82.9578V82.927V82.8955V82.8632V82.8302V82.7964V82.7619V82.7266V82.6905V82.6537V82.6162V82.5779V82.5388V82.4991V82.4586V82.4173V82.3754V82.3327V82.2893V82.2452V82.2003V82.1547V82.1085V82.0615V82.0138V81.9654V81.9163V81.8665V81.816V81.7648V81.7129V81.6603V81.6071V81.5532V81.4985V81.4432V81.3873V81.3306V81.2733V81.2154V81.1567V81.0974V81.0375V80.9769V80.9156V80.8537V80.7911V80.7279V80.6641V80.5996V80.5345V80.4687V80.4023V80.3353V80.2677V80.1994V80.1305V80.061V79.9909V79.9202V79.8489V79.7769V79.7044V79.6312V79.5575V79.4832V79.4082V79.3327V79.2566V79.1799V79.1027V79.0248V78.9464V78.8674V78.7878V78.7077V78.627V78.5457V78.4639V78.3815V78.2986V78.2151V78.1311V78.0465V77.9614V77.8757V77.7895V77.7028V77.6155V77.5277V77.4394V77.3505V77.2612V77.1713V77.0809V76.9899V76.8985V76.8066V76.7141V76.6212V76.5277V76.4338V76.3394V76.2444V76.149V76.0531V75.9567V75.8599V75.7625V75.6647V75.5664V75.4677V75.3684V75.2687V75.1686V75.068V74.9669V74.8654V74.7634V74.661V74.5582V74.4548V74.3511V74.2469V74.1423V74.0373V73.9318V73.8259V73.7196V73.6128V73.5057V73.3981V73.2901V73.1817V73.0729V72.9637V72.8541V72.7441V72.6337V72.5229V72.4117V72.3001V72.1882V72.0758V71.9631V71.85V71.7365V71.6227V71.5085V71.3939V71.279V71.1637V71.048V70.932V70.8156V70.6989V70.5818V70.4644V70.3467V70.2286V70.1102V69.9914V69.8724V69.7529V69.6332V69.5132V69.3928V69.2721V69.1511V69.0298V68.9081V68.7862V68.664V68.5414V68.4186V68.2955V68.172V68.0483V67.9243V67.8001V67.6755V67.5507V67.4255V67.3002V67.1745V67.0486V66.9224V66.7959V66.6692V66.5423V66.415V66.2876V66.1599V66.0319V65.9037V65.7752V65.6465V65.5176V65.3885V65.2591V65.1295V64.9996V64.8696V64.7393V64.6088V64.4781V64.3472V64.2161V64.0848V63.9533V63.8215V63.6896V63.5575V63.4252V63.2927V63.16V63.0272V62.8941V62.7609V62.6275V62.494V62.3602V62.2263V62.0923V61.958V61.8237V61.6891V61.5544V61.4196V61.2846V61.1495V61.0142V60.8788V60.7432V60.6075V60.4717V60.3358V60.1997V60.0635V59.9272V59.7908V59.6542V59.5176V59.3808V59.244V59.107V58.9699V58.8327V58.6955V58.5581V58.4207V58.2831V58.1455V58.0078V57.87V57.7322V57.5942V57.4562V57.3182V57.18V57.0418V56.9036V56.7652V56.6269V56.4885V56.35V56.2115V56.0729V55.9343V55.7957V55.657V55.5183V55.3795V55.2408V55.102V54.9632V54.8244V54.6855V54.5467V54.4078V54.2689V54.13V53.9911V53.8523V53.7134V53.5745V53.4356V53.2968V53.1579V53.0191V52.8803V52.7415V52.6027V52.464V52.3253V52.1866V52.048V51.9094V51.7709V51.6323V51.4939V51.3555V51.2171V51.0788V50.9405V50.8024V50.6642V50.5262V50.3882V50.2503V50.1124V49.9746V49.8369V49.6993V49.5618V49.4244V49.287V49.1498V49.0126V48.8756V48.7386V48.6018V48.465V48.3284V48.1918V48.0554V47.9191V47.783V47.6469V47.511V47.3752V47.2395V47.104V46.9686V46.8334V46.6982V46.5633V46.4285V46.2938V46.1593V46.0249V45.8907V45.7567V45.6228V45.4891V45.3556V45.2222V45.089V44.956V44.8231V44.6905V44.558V44.4258V44.2937V44.1618V44.0301V43.8986V43.7673V43.6362V43.5053V43.3747V43.2442V43.114V42.9839V42.8541V42.7246V42.5952V42.4661V42.3372V42.2086V42.0802V41.952V41.8241V41.6964V41.5689V41.4417V41.3148V41.1881V41.0617V40.9356V40.8097V40.6841V40.5587V40.4337V40.3089V40.1843V40.0601V39.9362V39.8125V39.6891V39.566V39.4432V39.3207V39.1986V39.0767V38.9551V38.8338V38.7128V38.5922V38.4719V38.3519V38.2322V38.1128V37.9938V37.8751V37.7567V37.6387V37.521V37.4036V37.2866V37.1699V37.0536V36.9377V36.8221V36.7068V36.5919V36.4774V36.3632V36.2495V36.136V36.023V35.9103V35.7981V35.6861V35.5746V35.4635V35.3528V35.2424V35.1325V35.0229V34.9138V34.805V34.6967V34.5888V34.4812V34.3741V34.2675V34.1612V34.0554V33.95V33.845V33.7404V33.6363V33.5326V33.4294V33.3266V33.2242V33.1223V33.0209V32.9199V32.8193V32.7193V32.6196V32.5205V32.4218V32.3699L171.242 44.5208C171.547 44.794 172.968 46.2194 172.968 48.2258ZM118.842 77.2599L118.813 77.2839L118.785 77.3087C114.98 80.6587 106.517 89.997 104.881 107.422L104.881 107.426C104.742 108.926 104.311 112.333 103.07 116.195C101.822 120.076 99.8171 124.223 96.6473 127.39L96.6435 127.394C90.6897 133.362 83.6763 136.434 75.7127 136.666C63.3222 136.979 55.8889 131.482 51.5194 126.132C51.0073 125.505 50.9464 124.833 51.5339 123.926C52.196 122.904 53.5393 121.975 55.0708 121.736C60.4463 120.899 66.7811 118.639 72.9969 113.501L73.0091 113.491L73.0212 113.481C74.5649 112.177 85.4328 102.282 87.3495 82.0026L87.3518 81.9777L87.3538 81.9528C87.6493 78.1504 88.9054 71.0699 93.8604 65.1325L93.8663 65.1254L93.8721 65.1183C98.1206 59.9637 105.527 53.9653 116.904 53.9653C129.767 53.9653 137.06 59.798 141.13 65.1407C141.608 65.7675 141.626 66.3888 141.132 67.1494C140.565 68.0235 139.395 68.8266 137.996 69.0056C132.403 69.7212 125.582 71.7547 119.408 76.7864L119.393 76.7987L119.378 76.8112L118.842 77.2599Z" stroke="black" stroke-width="6"/>
</g>
<defs>
<clipPath id="clip0_31_93">
<rect width="160" height="136" fill="white" transform="translate(16 28)"/>
</clipPath>
</defs>
</svg>
