<svg width="192" height="192" viewBox="0 0 192 192" fill="none" xmlns="http://www.w3.org/2000/svg">
<mask id="mask0_0_1" style="mask-type:luminance" maskUnits="userSpaceOnUse" x="16" y="21" width="160" height="160">
<path d="M176 21H16V181H176V21Z" fill="white"/>
</mask>
<g mask="url(#mask0_0_1)">
<path d="M96 30.375C57.0572 30.375 25.375 62.0572 25.375 101C25.375 139.943 57.0572 171.625 96 171.625C134.943 171.625 166.625 139.943 166.625 101C166.625 62.0572 134.943 30.375 96 30.375ZM96 21C140.183 21 176 56.8172 176 101C176 145.183 140.183 181 96 181C51.8172 181 16 145.183 16 101C16 56.8172 51.8172 21 96 21Z" fill="black"/>
<path d="M102.25 84.125V143.188C102.25 144.845 101.592 146.435 100.419 147.607C99.2473 148.779 97.6576 149.438 96 149.438C94.3424 149.438 92.7527 148.779 91.5806 147.607C90.4085 146.435 89.75 144.845 89.75 143.188V84.125C89.75 82.4674 90.4085 80.8777 91.5806 79.7056C92.7527 78.5335 94.3424 77.875 96 77.875C97.6576 77.875 99.2473 78.5335 100.419 79.7056C101.592 80.8777 102.25 82.4674 102.25 84.125Z" fill="black"/>
<path d="M111.938 68.5H79.4375C77.7799 68.5 76.1902 67.8415 75.0181 66.6694C73.846 65.4973 73.1875 63.9076 73.1875 62.25C73.1875 60.5924 73.846 59.0027 75.0181 57.8306C76.1902 56.6585 77.7799 56 79.4375 56H111.938C113.595 56 115.185 56.6585 116.357 57.8306C117.529 59.0027 118.188 60.5924 118.188 62.25C118.188 63.9076 117.529 65.4973 116.357 66.6694C115.185 67.8415 113.595 68.5 111.938 68.5Z" fill="black"/>
<path d="M136.312 91.9375H126.312C124.655 91.9375 123.065 91.279 121.893 90.1069C120.721 88.9348 120.062 87.3451 120.062 85.6875C120.062 84.0299 120.721 82.4402 121.893 81.2681C123.065 80.096 124.655 79.4375 126.312 79.4375H136.312C137.97 79.4375 139.56 80.096 140.732 81.2681C141.904 82.4402 142.562 84.0299 142.562 85.6875C142.562 87.3451 141.904 88.9348 140.732 90.1069C139.56 91.279 137.97 91.9375 136.312 91.9375Z" fill="black"/>
<path d="M65.6875 91.9375H56C54.3424 91.9375 52.7527 91.279 51.5806 90.1069C50.4085 88.9348 49.75 87.3451 49.75 85.6875C49.75 84.0299 50.4085 82.4402 51.5806 81.2681C52.7527 80.096 54.3424 79.4375 56 79.4375H65.6875C67.3451 79.4375 68.9348 80.096 70.1069 81.2681C71.279 82.4402 71.9375 84.0299 71.9375 85.6875C71.9375 87.3451 71.279 88.9348 70.1069 90.1069C68.9348 91.279 67.3451 91.9375 65.6875 91.9375Z" fill="black"/>
<path d="M117.504 59.34L130.942 82.6144C131.769 84.0498 131.992 85.7549 131.563 87.355C131.134 88.9551 130.086 90.3192 128.652 91.1475C127.217 91.9759 125.512 92.2007 123.912 91.7726C122.311 91.3444 120.946 90.2984 120.117 88.8644L106.679 65.59C105.852 64.1546 105.629 62.4495 106.058 60.8494C106.487 59.2493 107.535 57.8852 108.969 57.0569C110.404 56.2285 112.109 56.0037 113.709 56.4318C115.31 56.8599 116.675 57.906 117.504 59.34Z" fill="black"/>
<path d="M84.6919 65.59L71.2544 88.8644C70.4248 90.2984 69.0599 91.3444 67.4594 91.7726C65.859 92.2007 64.1541 91.9759 62.7193 91.1475C61.2846 90.3192 60.2374 88.9551 59.808 87.355C59.3785 85.7549 59.6019 84.0498 60.4291 82.6144L73.8666 59.34C74.6961 57.906 76.0611 56.8599 77.6615 56.4318C79.2619 56.0037 80.9669 56.2285 82.4016 57.0569C83.8364 57.8852 84.8835 59.2493 85.313 60.8494C85.7424 62.4495 85.519 64.1546 84.6919 65.59Z" fill="black"/>
</g>
</svg>
