<svg width="192" height="192" viewBox="0 0 192 192" fill="none" xmlns="http://www.w3.org/2000/svg">
<g clip-path="url(#clip0_31_122)">
<path d="M174.267 107.96L161.107 95.1162L173.915 81.9194C176.122 79.6451 176.073 76.0072 173.805 73.7939C171.537 71.5803 167.909 71.6297 165.702 73.9039L149.898 90.1875C149.819 90.1849 149.74 90.1839 149.661 90.1845L109.534 90.7291L132.072 66.5618C132.283 66.3352 132.476 66.0919 132.648 65.8342L150.235 65.244C153.398 65.1379 155.876 62.4806 155.77 59.3088C155.664 56.1369 153.015 53.654 149.851 53.758L134.928 54.2588L134.429 39.2938C134.323 36.1219 131.672 33.6364 128.51 33.7429C125.347 33.849 122.869 36.5063 122.975 39.6781L123.613 58.8068L102.388 81.566V42.1145C102.388 41.6343 102.328 41.1683 102.218 40.7226L117.089 25.8097C119.327 23.5656 119.327 19.9273 117.089 17.6832C114.851 15.4392 111.223 15.4392 108.985 17.6832L96 30.7048L83.0147 17.6831C80.7769 15.439 77.1488 15.439 74.911 17.6831C72.6732 19.9272 72.6732 23.5654 74.911 25.8095L90.9334 41.8769C90.9302 41.9557 90.9275 42.0347 90.9275 42.1145V82.3583L67.1351 59.4315C66.9119 59.2168 66.6719 59.0204 66.4174 58.8443L66.0668 41.2019C66.0038 38.0291 63.3865 35.5059 60.2236 35.5713C57.0597 35.6345 54.5457 38.2578 54.6088 41.4308L54.9062 56.4012L39.9777 56.6995C36.8137 56.7627 34.2998 59.3861 34.3628 62.5591C34.4251 65.6931 36.9779 68.1907 40.0896 68.1907C40.1283 68.1907 40.1673 68.1904 40.206 68.1897L59.288 67.8084L83.4416 91.0832L41.9587 91.6463L25.7269 75.8038C23.4588 73.5902 19.8312 73.6396 17.6239 75.9139C15.4165 78.1881 15.4657 81.826 17.7336 84.0394L30.8935 96.8835L18.0852 110.08C15.8778 112.355 15.927 115.993 18.1949 118.206C19.3087 119.293 20.7504 119.834 22.191 119.834C23.6835 119.834 25.1746 119.253 26.2979 118.096L40.7987 103.155L82.7848 102.585L60.8405 126.116L41.7653 126.756C38.6024 126.862 36.1241 129.519 36.2299 132.691C36.3358 135.863 38.9865 138.346 42.1485 138.242L57.0717 137.741L57.5713 152.706C57.675 155.813 60.2186 158.261 63.2946 158.26C63.3595 158.26 63.4246 158.259 63.4898 158.257C66.6527 158.151 69.1308 155.494 69.025 152.322L68.4398 134.792L90.9272 110.68V150.129L74.9108 166.19C72.673 168.434 72.673 172.073 74.9108 174.317C76.0298 175.439 77.4962 176 78.9626 176C80.429 176 81.8955 175.439 83.0143 174.317L96 161.295L108.985 174.317C111.223 176.561 114.851 176.561 117.089 174.317C119.327 172.073 119.327 168.434 117.089 166.191L102.388 151.448V109.34L125.553 131.663L125.933 150.798C125.996 153.932 128.548 156.43 131.66 156.43C131.699 156.43 131.738 156.429 131.776 156.429C134.94 156.365 137.454 153.742 137.391 150.569L137.094 135.599L152.022 135.3C155.186 135.237 157.7 132.614 157.637 129.441C157.574 126.268 154.959 123.74 151.794 123.81L134.307 124.16L111.514 102.196L149.817 101.676C150.284 101.67 150.75 101.606 151.202 101.486L166.273 116.196C167.387 117.283 168.829 117.825 170.269 117.825C171.762 117.825 173.253 117.244 174.376 116.086C176.583 113.812 176.534 110.174 174.267 107.96Z" fill="black"/>
</g>
<defs>
<clipPath id="clip0_31_122">
<rect width="192" height="192" fill="white"/>
</clipPath>
</defs>
</svg>
