<svg width="192" height="192" viewBox="0 0 192 192" fill="none" xmlns="http://www.w3.org/2000/svg">
<path d="M96.0574 19.4458C138.326 19.4458 172.669 53.6741 172.669 96.0574C172.669 138.326 138.441 172.669 96.0574 172.669C53.6741 172.554 19.4458 138.326 19.4458 96.0574C19.4458 53.6741 53.6741 19.4458 96.0574 19.4458Z" stroke="black" stroke-width="12"/>
<mask id="path-2-inside-1_31_124" fill="white">
<path d="M96.0574 176C51.8363 176 16 140.164 16 96.0574C16 51.9512 51.8363 16 96.0574 16C140.279 16 176.115 51.8363 176.115 96.0574C176 140.164 140.164 176 96.0574 176ZM96.0574 22.8916C55.6267 22.8916 22.8916 55.6267 22.8916 96.0574C22.8916 136.488 55.6267 169.223 96.0574 169.223C136.488 169.223 169.223 136.488 169.223 96.0574C169.223 55.6267 136.373 22.8916 96.0574 22.8916Z"/>
</mask>
<path d="M176.115 96.0574L188.115 96.0887L188.115 96.0731V96.0574H176.115ZM96.0574 164C58.4525 164 28 133.525 28 96.0574H4C4 146.802 45.2201 188 96.0574 188V164ZM28 96.0574C28 58.5674 58.4749 28 96.0574 28V4C45.1977 4 4 45.335 4 96.0574H28ZM96.0574 28C133.651 28 164.115 58.4637 164.115 96.0574H188.115C188.115 45.2089 146.906 4 96.0574 4V28ZM164.115 96.0262C164.017 133.535 133.53 164 96.0574 164V188C146.797 188 187.983 146.792 188.115 96.0887L164.115 96.0262ZM96.0574 10.8916C48.9993 10.8916 10.8916 48.9993 10.8916 96.0574H34.8916C34.8916 62.2541 62.2541 34.8916 96.0574 34.8916V10.8916ZM10.8916 96.0574C10.8916 143.116 48.9993 181.223 96.0574 181.223V157.223C62.2541 157.223 34.8916 129.861 34.8916 96.0574H10.8916ZM96.0574 181.223C143.116 181.223 181.223 143.116 181.223 96.0574H157.223C157.223 129.861 129.861 157.223 96.0574 157.223V181.223ZM181.223 96.0574C181.223 48.987 142.988 10.8916 96.0574 10.8916V34.8916C129.758 34.8916 157.223 62.2664 157.223 96.0574H181.223Z" fill="black" mask="url(#path-2-inside-1_31_124)"/>
<path d="M97.8952 60.5657L107.429 79.8622C107.773 80.4365 108.347 80.8959 109.037 81.0108L130.286 84.112C132.009 84.3417 132.698 86.5241 131.434 87.6727L116.043 102.604C115.584 103.064 115.354 103.753 115.469 104.442L119.144 125.576C119.489 127.299 117.651 128.563 116.158 127.759L97.206 117.766C96.6317 117.421 95.8277 117.421 95.2534 117.766L76.3015 127.759C74.8083 128.563 72.9706 127.299 73.3152 125.576L76.6461 104.442C76.7609 103.753 76.5312 103.064 76.0718 102.604L60.6805 87.6727C59.4171 86.4092 60.1062 84.3417 61.8291 84.112L83.0782 81.0108C83.7674 80.8959 84.3417 80.4365 84.6863 79.8622L94.1048 60.5657C94.9088 58.9576 97.0912 58.9576 97.8952 60.5657Z" stroke="black" stroke-width="12"/>
</svg>
