<svg width="192" height="192" viewBox="0 0 192 192" fill="none" xmlns="http://www.w3.org/2000/svg">
<g clip-path="url(#clip0_31_124)">
<path d="M81.2804 36.8778C76.0243 38.5099 73.1004 46.6642 68.8338 50.6033C68.4289 50.9567 68.0177 51.2459 67.6065 51.5414L68.8338 53.0001L95.3017 85.5983C97.8721 88.2907 99.4464 87.706 99.8577 83.9083L102.197 40.3218C96.1177 40.3218 86.7103 35.2392 81.2804 36.8778ZM68.8338 56.5021L66.2057 52.9423C61.4184 56.6821 50.8415 57.3247 47.6865 61.9963C44.2358 66.9056 47.7443 75.7283 45.9321 81.338L68.8337 87.0634L89.3385 92.204C93.0206 92.6667 93.9009 91.3237 91.851 88.053L68.8338 56.5021ZM88.9915 97.1648L68.8338 90.6232L45.7009 83.2077C44.2998 88.8111 36.2355 95.4169 36.3512 101.085C36.4668 107.099 44.5955 112.124 45.8806 118.145L68.8337 109.637L89.3385 102.042C92.6734 100.204 92.4936 98.6299 88.9915 97.1648ZM159.213 83.6127L125.098 94.2153C121.63 95.2868 119.686 95.8876 116.218 96.9591C112.767 98.482 112.767 100.114 116.218 101.811L125.098 105.255L158.808 118.286C160.967 112.561 168.447 107.009 168.505 101.399C168.562 95.3591 160.62 89.3959 159.213 83.6127ZM138.007 51.8882C133.683 48.6757 129.654 40.9646 125.098 37.8096C124.495 37.3582 123.825 37.0027 123.113 36.7558C117.445 34.7702 109.381 40.7333 103.482 40.4378L105.114 84.2554C105.641 87.9952 107.222 88.4643 109.792 85.5984L125.098 67.3168L138.007 51.8882ZM116.038 92.2874L125.098 90.0641L159.097 81.6527C157.227 75.8116 159.919 66.0508 156.642 61.4371C153.256 56.5279 143.148 56.592 138.534 52.91L125.098 71.6349L113.063 88.4642C111.308 91.7349 112.304 93.02 116.038 92.2874Z" stroke="black" stroke-width="6"/>
<path d="M100.519 103.482C101.651 103.138 102.859 103.136 103.992 103.477L153.302 118.298C156.333 119.209 158.18 122.342 158.097 125.506C157.978 130.057 158.268 134.63 155.537 138.849C151.682 144.806 141.921 144.459 136.311 148.546C130.701 152.633 129.243 160.992 122.875 163.152C116.507 165.311 109.734 159.759 102.781 159.759C95.8284 159.759 88.5224 165.195 81.923 162.972C75.3237 160.748 73.3895 152.221 67.902 148.012C62.4144 143.803 53.0005 143.925 49.4406 138.374C46.9628 134.509 47.3676 129.855 47.3703 125.412C47.3723 122.238 49.24 119.076 52.2771 118.152L100.519 103.482Z" stroke="black" stroke-width="12"/>
</g>
<defs>
<clipPath id="clip0_31_124">
<rect width="192" height="192" fill="white"/>
</clipPath>
</defs>
</svg>
