<svg width="192" height="192" viewBox="0 0 192 192" fill="none" xmlns="http://www.w3.org/2000/svg">
<g clip-path="url(#clip0_31_122)">
<g clip-path="url(#clip1_31_122)">
<mask id="mask0_31_122" style="mask-type:luminance" maskUnits="userSpaceOnUse" x="16" y="16" width="160" height="160">
<path d="M176 16H16V176H176V16Z" fill="white"/>
</mask>
<g mask="url(#mask0_31_122)">
<path d="M73.0551 133.885C72.9465 134.878 73.2765 135.869 73.9587 136.598C76.0818 138.868 79.8872 137.366 79.8872 134.258V93L77.3817 97.9184C77.052 98.5656 76.8426 99.2673 76.7636 99.9893L73.0551 133.885ZM79.8872 93L79.9412 134.26C79.9453 137.371 83.7544 138.872 85.8793 136.6C86.5627 135.869 86.8933 134.877 86.7845 133.883L83.0792 100.016C82.9983 99.2767 82.7805 98.5586 82.437 97.8987L79.8872 93Z" fill="black"/>
<path d="M157.688 136.488H166.856C170.749 136.488 172.695 138.434 172.695 142.327C172.695 146.219 170.749 148.166 166.856 148.166H157.688C153.796 148.166 151.849 146.219 151.849 142.327C151.849 138.434 153.796 136.488 157.688 136.488Z" fill="black"/>
<path d="M111.936 95.8772C107.995 93.4588 107.126 87.4712 109.829 83.7196C114.163 77.7049 116.722 70.3319 116.722 62.3701C116.722 42.1415 100.268 25.6875 80.0392 25.6875C59.8106 25.6875 43.3636 42.1486 43.3636 62.3772C43.3636 70.3465 45.9273 77.7175 50.2653 83.7329C52.9687 87.4815 52.0982 93.4622 48.1589 95.8794C30.6359 106.632 18.9097 125.95 18.9097 147.971V160.2C18.9093 161.003 19.0671 161.798 19.3741 162.54C19.6811 163.281 20.1313 163.955 20.699 164.523C21.2667 165.091 21.9408 165.541 22.6826 165.848C23.4244 166.155 24.2195 166.313 25.0223 166.312H135.072C135.875 166.313 136.67 166.155 137.412 165.848C138.154 165.541 138.828 165.091 139.395 164.523C139.963 163.955 140.413 163.281 140.72 162.54C141.027 161.798 141.185 161.003 141.185 160.2V147.971C141.185 125.945 129.466 106.633 111.936 95.8772ZM80.0472 37.9224L80.0493 37.9233C93.5357 37.924 104.504 48.8907 104.504 62.379C104.504 75.8677 93.535 86.8329 80.048 86.8329C66.5611 86.8329 55.5906 75.8641 55.5906 62.3772C55.5906 48.8907 66.5586 37.9222 80.045 37.9215L80.0472 37.9224ZM128.958 148.086C128.958 151.399 126.271 154.086 122.958 154.086H37.1349C33.8212 154.086 31.1349 151.399 31.1349 148.086V147.971C31.1349 121.003 53.0777 99.0616 80.0516 99.0616C107.025 99.0616 128.958 121.003 128.958 147.971V148.086ZM146.483 89.0049C146.48 89.0054 146.478 89.0017 146.48 88.9993C150.001 85.1274 152.467 80.4156 153.642 75.316C154.819 70.2133 154.663 64.8939 153.19 59.8688C151.717 54.8438 148.976 50.2819 145.232 46.6217C141.487 42.9614 136.864 40.3256 131.806 38.9677C130.242 38.5519 128.577 38.7731 127.176 39.5828C125.774 40.3925 124.751 41.7247 124.33 43.2874C123.909 44.8502 124.125 46.516 124.93 47.92C125.735 49.3239 127.064 50.3515 128.625 50.7776C132.282 51.7649 135.543 53.8598 137.961 56.7747C140.379 59.6895 141.836 63.2814 142.131 67.0571C142.426 70.8329 141.545 74.6074 139.609 77.8625C137.673 81.1176 134.777 83.6937 131.319 85.2371C130.587 85.5546 129.926 86.0154 129.375 86.5925C129.327 86.6473 129.267 86.6827 129.219 86.7357C128.847 87.1712 128.539 87.6581 128.306 88.1812C128.171 88.428 128.052 88.6836 127.952 88.9464C127.91 89.0842 127.809 89.1903 127.775 89.3352C127.715 89.5861 127.775 89.8247 127.751 90.0756C127.678 90.5432 127.662 91.0179 127.703 91.4893C127.739 91.7282 127.79 91.9644 127.858 92.1962C127.942 92.5797 127.942 92.972 128.109 93.3431C128.532 94.291 129.192 95.1141 130.025 95.7332C130.858 96.3522 131.837 96.7462 132.867 96.8774C140.788 98.8488 147.82 103.42 152.838 109.859C157.856 116.298 160.57 124.234 160.546 132.397V141.855C160.573 143.458 161.229 144.987 162.372 146.111C163.516 147.235 165.055 147.865 166.659 147.865C168.263 147.865 169.802 147.235 170.946 146.111C172.089 144.987 172.745 143.458 172.772 141.855V132.399C172.772 113.742 162.396 97.2509 146.485 89.0052L146.483 89.0049Z" fill="black"/>
</g>
</g>
</g>
<defs>
<clipPath id="clip0_31_122">
<rect width="192" height="192" fill="white"/>
</clipPath>
<clipPath id="clip1_31_122">
<rect width="160" height="160" fill="white" transform="translate(16 16)"/>
</clipPath>
</defs>
</svg>
