<svg width="192" height="192" viewBox="0 0 192 192" fill="none" xmlns="http://www.w3.org/2000/svg">
<path d="M153.367 49.1429C152.983 48.8604 152.574 48.6154 152.136 48.4052L105.258 21.3363C99.35 18.3434 92.3936 18.3718 86.5243 21.5483L39.855 48.4881L38.8649 49.0741C32.9264 52.7359 29.3815 59.0924 29.3815 66.0965L29.3815 120.026C29.3815 126.89 32.8243 133.187 38.7448 136.967L85.4832 163.942C85.7215 164.101 85.9633 164.242 86.4944 164.539C89.4043 166.13 92.7149 166.974 96.0748 166.974C99.4314 166.974 102.746 166.13 105.654 164.539L105.993 164.334L103.222 159.675L106.356 164.115L135.908 147.068L153.615 136.822C159.251 133.176 162.668 127.003 162.763 120.234V66.0612C162.763 59.2001 159.173 52.75 153.367 49.1429ZM151.921 120.156C151.878 123.22 150.311 126.047 147.932 127.593L100.663 154.893C100.543 154.96 100.423 155.03 100.303 155.105C97.6772 156.481 94.1548 156.375 91.8642 155.122L62.7271 138.315L44.4254 127.734C41.7941 126.051 40.2237 123.171 40.2237 120.026V66.0965C40.2237 62.8864 41.8418 59.9781 44.4625 58.3583L91.8077 31.014C93.0818 30.3275 94.5534 29.9624 96.0747 29.9624C97.5466 29.9624 98.9902 30.3169 100.045 30.8376L146.93 57.9168L147.52 58.275C150.276 59.9233 151.921 62.8368 151.921 66.061V120.156Z" fill="#231815"/>
<path d="M135.95 55.0105H121.921V52.0547C121.67 49.8384 119.824 48.4866 116.379 47.996C112.684 47.996 110.842 49.1024 110.842 51.3205V55.3794H81.6695V51.6859C81.4206 49.4696 79.5731 48.3614 76.1283 48.3614C72.4383 48.3614 70.5926 49.4696 70.5926 51.6859V55.3794H56.1906C53.2331 55.6248 51.7595 57.5943 51.7595 61.284C51.7595 64.9775 53.2331 66.8289 56.1906 66.8289H70.5926V69.4088C74.2859 73.8435 77.976 73.8435 81.6696 69.4088V66.8289H110.842V69.4088C110.842 71.6288 112.684 72.7336 116.38 72.7336C119.825 72.4917 121.67 71.2566 121.921 69.0434V66.4564H135.95C138.657 66.4564 140.136 64.6087 140.383 60.9186C140.136 57.2253 138.657 55.256 135.95 55.0105Z" fill="#231815"/>
<path d="M135.583 97.8417H131.888V83.0747C132.131 78.6435 130.042 76.5541 125.613 76.7925H101.609V73.8435C101.362 72.1195 99.516 71.1365 96.0711 70.8844C92.3792 70.8844 90.5318 71.7559 90.5318 73.4714V76.7927H65.7944C61.8504 76.7927 60.0044 78.889 60.2497 83.0748V97.8419H56.1872C53.4766 98.0906 52.0032 99.9418 51.7595 103.387C52.0032 106.833 53.4766 108.552 56.1872 108.552H86.8385C80.1926 115.449 70.8327 120.739 58.7761 124.431C55.3244 125.415 54.2142 127.625 55.4496 131.077C56.9286 134.521 59.3869 135.749 62.8384 134.768C79.3296 129.103 90.9007 121.971 97.5467 113.352C104.686 120.986 115.885 127.999 131.15 134.401C134.348 135.382 136.811 134.154 138.537 130.71C139.518 127.501 138.286 125.295 134.842 124.06C122.288 118.399 113.549 113.232 108.625 108.552H136.321C139.028 108.552 140.383 106.833 140.383 103.387C139.885 99.9417 138.286 98.0904 135.583 97.8417ZM90.5318 97.8417H71.3303V87.8712H90.5318V97.8417ZM120.813 97.8417H101.609V87.8712H120.812L120.813 97.8417Z" fill="#231815"/>
</svg>
