<svg width="192" height="192" viewBox="0 0 192 192" fill="none" xmlns="http://www.w3.org/2000/svg">
<path d="M56.0108 54.6711C57.8672 53.5993 60.1543 53.5993 62.0108 54.6711L93.2592 72.7124C95.1156 73.7842 96.2592 75.765 96.2592 77.9086V113.991C96.2592 116.135 95.1156 118.115 93.2592 119.187L62.0108 137.229C60.1543 138.3 57.8672 138.3 56.0108 137.229L24.7623 119.187C22.9059 118.115 21.7623 116.135 21.7623 113.991V77.9086C21.7623 75.765 22.9059 73.7842 24.7623 72.7124L56.0108 54.6711Z" stroke="black" stroke-width="12"/>
<path d="M129.989 54.6711C131.846 53.5993 134.133 53.5993 135.989 54.6711L167.238 72.7124C169.094 73.7842 170.238 75.765 170.238 77.9086V113.991C170.238 116.135 169.094 118.115 167.238 119.187L135.989 137.229C134.133 138.3 131.846 138.3 129.989 137.229L98.7408 119.187C96.8844 118.115 95.7408 116.135 95.7408 113.991V77.9086C95.7408 75.765 96.8844 73.7842 98.7408 72.7124L129.989 54.6711Z" stroke="black" stroke-width="12"/>
<path d="M59.1999 52.5528L170.237 117.455M21.7634 74.4445L132.989 138.961" stroke="black" stroke-width="12"/>
</svg>
