<svg width="192" height="192" viewBox="0 0 192 192" fill="none" xmlns="http://www.w3.org/2000/svg">
<g clip-path="url(#clip0_31_122)">
<g clip-path="url(#clip1_31_122)">
<mask id="mask0_31_122" style="mask-type:luminance" maskUnits="userSpaceOnUse" x="16" y="16" width="160" height="160">
<path d="M176 16H16V176H176V16Z" fill="white"/>
</mask>
<g mask="url(#mask0_31_122)">
<path d="M122 166C118.686 166 116 163.314 116 160V149.36C116 146.046 113.314 143.36 110 143.36H82C78.6863 143.36 76 146.046 76 149.36V160C76 163.314 73.3137 166 70 166H32C28.6863 166 26 163.314 26 160V72C26 68.6863 28.6863 66 32 66H41.3153C44.0685 66 46.4684 64.1262 47.1362 61.4552L54.8638 30.5448C55.5316 27.8738 57.9315 26 60.6847 26H131.315C134.069 26 136.468 27.8738 137.136 30.5448L144.864 61.4552C145.532 64.1262 147.931 66 150.685 66H160C163.314 66 166 68.6863 166 72V160C166 163.314 163.314 166 160 166H122ZM145 151C148.314 151 151 148.314 151 145V87C151 83.6863 148.314 81 145 81H138.975C136.221 81 133.822 79.1262 133.154 76.4552L125.426 45.5448C124.758 42.8738 122.359 41 119.605 41H72.3847C69.6315 41 67.2316 42.8738 66.5638 45.5448L58.8362 76.4552C58.1684 79.1262 55.7685 81 53.0153 81H47C43.6863 81 41 83.6863 41 87V145C41 148.314 43.6863 151 47 151H55C58.3137 151 61 148.314 61 145V134.36C61 131.046 63.6863 128.36 67 128.36H125C128.314 128.36 131 131.046 131 134.36V145C131 148.314 133.686 151 137 151H145Z" fill="black"/>
<path d="M76 92C76 88.6863 78.6863 86 82 86H110C113.314 86 116 88.6863 116 92V95C116 98.3137 113.314 101 110 101H82C78.6863 101 76 98.3137 76 95V92Z" fill="black"/>
</g>
</g>
</g>
<defs>
<clipPath id="clip0_31_122">
<rect width="192" height="192" fill="white"/>
</clipPath>
<clipPath id="clip1_31_122">
<rect width="160" height="160" fill="white" transform="translate(16 16)"/>
</clipPath>
</defs>
</svg>
