<svg width="192" height="192" viewBox="0 0 192 192" fill="none" xmlns="http://www.w3.org/2000/svg">
<g clip-path="url(#clip0_31_122)">
<path d="M24.5301 100.935H24.5187M96.128 156.088C91.2243 159.398 85.4613 161.205 79.5456 161.287C73.4139 161.256 67.4597 159.226 62.5861 155.505M104.985 142.408H104.973M176 79.7469L107.431 33.3597L23.0558 22L59.8891 44.7651L54.2207 54.3076C30.8613 63.6788 15.6961 86.1582 16.0046 110.946C16.3246 135.745 32.0499 157.836 55.6606 166.636C67.1848 170.948 79.7283 171.748 91.7068 168.935C103.685 166.121 114.561 159.822 122.962 150.831C131.25 141.946 136.623 130.738 138.357 118.712C140.091 106.686 138.105 94.417 132.664 83.5525H132.698L136.561 74.7071L166.126 78.5127V114.774C166.126 116.169 167.269 117.3 168.697 117.3C169.371 117.306 170.02 117.045 170.502 116.574C170.984 116.103 171.26 115.46 171.269 114.786V79.1641L176 79.7355V79.7469ZM104.985 98.4092C101.088 98.3854 97.2708 99.5111 94.0103 101.645C90.7499 103.78 88.1911 106.828 86.654 110.409C85.1518 113.964 84.7561 117.89 85.5186 121.674C86.2811 125.457 88.1662 128.924 90.9282 131.62C93.7259 134.351 97.26 136.206 101.097 136.957C104.934 137.708 108.907 137.323 112.528 135.848C116.124 134.41 119.209 131.931 121.388 128.728C123.566 125.525 124.739 121.745 124.756 117.872C124.756 107.129 115.91 98.4321 104.973 98.4207H104.985V98.4092ZM111.042 119.86C109.86 119.867 108.702 119.526 107.712 118.88C106.723 118.234 105.945 117.311 105.476 116.226C105.018 115.146 104.896 113.954 105.127 112.804C105.357 111.654 105.929 110.6 106.768 109.78C107.616 108.949 108.689 108.384 109.855 108.154C111.02 107.925 112.227 108.041 113.328 108.489C114.243 108.841 115.055 109.418 115.689 110.167C116.322 110.916 116.757 111.812 116.953 112.773C117.149 113.734 117.099 114.729 116.809 115.666C116.519 116.603 115.998 117.452 115.293 118.134C114.153 119.243 112.621 119.859 111.03 119.849H111.053L111.042 119.86ZM49.4437 81.484C45.5455 81.4538 41.7251 82.5739 38.4604 84.7043C35.1958 86.8346 32.632 89.8805 31.0899 93.4608C29.5838 97.0166 29.1849 100.944 29.9454 104.73C30.7058 108.516 32.5903 111.985 35.3526 114.683C38.1503 117.414 41.6845 119.269 45.5214 120.02C49.3583 120.771 53.331 120.386 56.952 118.911C59.9526 117.739 62.6113 115.833 64.685 113.368C66.7587 110.903 68.1812 107.957 68.8224 104.8C69.4636 101.643 69.303 98.3753 68.3553 95.2964C67.4076 92.2174 65.703 89.4253 63.3975 87.1753C59.6556 83.5192 54.6295 81.4759 49.3979 81.484H49.4208H49.4437ZM54.5064 105.769C53.3244 105.776 52.1665 105.435 51.1768 104.789C50.1872 104.143 49.4095 103.22 48.9408 102.135C48.4826 101.055 48.3607 99.8626 48.5911 98.7126C48.8215 97.5627 49.3935 96.509 50.2322 95.6893C51.0819 94.8598 52.1554 94.2967 53.3209 94.0693C54.4863 93.8419 55.6928 93.9601 56.792 94.4093C57.7066 94.7628 58.5175 95.3408 59.1498 96.0901C59.7822 96.8395 60.2157 97.736 60.4104 98.6969C60.6051 99.6579 60.5547 100.652 60.2639 101.589C59.973 102.525 59.4511 103.373 58.7462 104.055C57.6084 105.161 56.0819 105.777 54.4949 105.769H54.5064Z" stroke="black" stroke-width="6"/>
</g>
<defs>
<clipPath id="clip0_31_122">
<rect width="192" height="192" fill="white"/>
</clipPath>
</defs>
</svg>
