<svg width="192" height="192" viewBox="0 0 192 192" fill="none" xmlns="http://www.w3.org/2000/svg">
<g clip-path="url(#clip0_31_122)">
<g clip-path="url(#clip1_31_122)">
<mask id="mask0_31_122" style="mask-type:luminance" maskUnits="userSpaceOnUse" x="4" y="11" width="170" height="170">
<path d="M174 11H4V181H174V11Z" fill="white"/>
</mask>
<g mask="url(#mask0_31_122)">
<path d="M151.061 48.7498C149.187 48.7498 147.718 50.3576 147.886 52.2233L148.024 53.7599C148.131 56.2987 148.114 58.8658 147.964 61.4574C147.124 75.938 142.306 89.2435 134.635 100.377C133.078 102.638 129.71 101.733 129.293 99.0194L121.902 50.8912C121.664 49.3359 120.326 48.1875 118.752 48.1875H109.501C107.751 48.1875 106.316 49.5724 106.209 51.3187C105.575 61.6486 101.924 95.0405 81.0108 113.547C78.2291 116.008 79.8233 120.91 83.2219 119.411C91.1023 115.937 99.4257 110.072 105.35 100.176C107.118 97.2218 112.927 97.7724 113.467 101.173L116.007 117.164C116.195 118.351 115.703 119.548 114.71 120.227C101.213 129.458 84.6703 134.459 67.0805 133.44C50.3275 132.468 35.1469 126.18 23.0811 116.313C20.1444 113.911 15.6278 116.762 17.9809 119.738C30.7819 135.928 50.1825 146.783 72.4131 148.073C104.129 149.913 132.379 131.744 144.861 104.514C146.393 101.172 153.727 101.565 154.288 105.198L156.974 122.593C157.214 124.148 158.551 125.295 160.124 125.295H171.307C173.273 125.295 174.771 123.53 174.452 121.589L162.88 51.4187C162.626 49.8792 161.295 48.7498 159.735 48.7498H151.061Z" fill="black"/>
</g>
</g>
</g>
<defs>
<clipPath id="clip0_31_122">
<rect width="192" height="192" fill="white"/>
</clipPath>
<clipPath id="clip1_31_122">
<rect width="170" height="170" fill="white" transform="translate(4 11)"/>
</clipPath>
</defs>
</svg>
