<svg width="192" height="192" viewBox="0 0 192 192" fill="none" xmlns="http://www.w3.org/2000/svg">
<g clip-path="url(#clip0_0_1)">
<g clip-path="url(#clip1_0_1)">
<path d="M155.432 55.5304C155.432 55.5307 155.432 55.5309 152.432 55.5309L155.432 55.5304ZM155.432 55.5304C155.432 55.5306 155.432 55.5302 155.432 55.5304ZM48.9505 50.4474L48.9481 50.4494C37.544 60.2193 36.5365 73.2714 36.5365 77.6224C36.5365 78.2193 36.5604 78.6765 36.5809 78.9678C36.5902 79.1006 36.5921 79.1507 36.592 79.2026C36.5915 82.1672 36.5849 115.621 36.5843 131.056L20.7417 118.925L20.74 118.924C20.412 118.625 19.0239 117.198 19.0239 115.194C19.008 87.5576 19 55.9212 19 55.8636C19.0004 41.2367 31.0054 25.7113 48.5335 25.7113C60.2092 25.7113 67.913 31.0235 72.7407 36.3012C73.3333 36.949 73.4179 37.6748 72.8737 38.6154C72.2632 39.6706 70.9705 40.6338 69.4514 40.8742C63.3279 41.843 55.9862 44.4324 48.9505 50.4474ZM172.968 20.2258V20.2276C172.984 47.8824 173 78.6112 173 78.6443C172.999 93.2907 161.002 108.8 143.466 108.8C131.794 108.8 124.092 103.495 119.263 98.2244C118.669 97.5764 118.585 96.852 119.127 95.9146C119.735 94.8621 121.024 93.8998 122.543 93.6593C128.669 92.6889 136.011 90.0943 143.034 84.059C154.475 74.302 155.451 61.2563 155.451 56.8809C155.451 56.4696 155.446 56.1348 155.441 55.8893C155.438 55.7773 155.436 55.6841 155.434 55.6151V55.5969C155.432 55.5377 155.432 55.5167 155.432 55.5153V55.5097V55.5032V55.4959V55.4878V55.4788V55.469V55.4583V55.4468V55.4344V55.4213V55.4073V55.3924V55.3768V55.3603V55.343V55.325V55.306V55.2863V55.2658V55.2445V55.2224V55.1995V55.1757V55.1512V55.1259V55.0999V55.073V55.0454V55.0169V54.9877V54.9578V54.927V54.8955V54.8632V54.8302V54.7964V54.7619V54.7266V54.6905V54.6537V54.6162V54.5779V54.5388V54.4991V54.4586V54.4173V54.3754V54.3327V54.2893V54.2452V54.2003V54.1547V54.1085V54.0615V54.0138V53.9654V53.9163V53.8665V53.816V53.7648V53.7129V53.6603V53.6071V53.5532V53.4985V53.4432V53.3873V53.3306V53.2733V53.2154V53.1567V53.0974V53.0375V52.9769V52.9156V52.8537V52.7911V52.7279V52.6641V52.5996V52.5345V52.4687V52.4023V52.3353V52.2677V52.1994V52.1305V52.061V51.9909V51.9202V51.8489V51.7769V51.7044V51.6312V51.5575V51.4832V51.4082V51.3327V51.2566V51.1799V51.1027V51.0248V50.9464V50.8674V50.7878V50.7077V50.627V50.5457V50.4639V50.3815V50.2986V50.2151V50.1311V50.0465V49.9614V49.8757V49.7895V49.7028V49.6155V49.5277V49.4394V49.3505V49.2612V49.1713V49.0809V48.9899V48.8985V48.8066V48.7141V48.6212V48.5277V48.4338V48.3394V48.2444V48.149V48.0531V47.9567V47.8599V47.7625V47.6647V47.5664V47.4677V47.3684V47.2687V47.1686V47.068V46.9669V46.8654V46.7634V46.661V46.5582V46.4548V46.3511V46.2469V46.1423V46.0373V45.9318V45.8259V45.7196V45.6128V45.5057V45.3981V45.2901V45.1817V45.0729V44.9637V44.8541V44.7441V44.6337V44.5229V44.4117V44.3001V44.1882V44.0758V43.9631V43.85V43.7365V43.6227V43.5085V43.3939V43.279V43.1637V43.048V42.932V42.8156V42.6989V42.5818V42.4644V42.3467V42.2286V42.1102V41.9914V41.8724V41.7529V41.6332V41.5132V41.3928V41.2721V41.1511V41.0298V40.9081V40.7862V40.664V40.5414V40.4186V40.2955V40.172V40.0483V39.9243V39.8001V39.6755V39.5507V39.4255V39.3002V39.1745V39.0486V38.9224V38.7959V38.6692V38.5423V38.415V38.2876V38.1599V38.0319V37.9037V37.7752V37.6465V37.5176V37.3885V37.2591V37.1295V36.9996V36.8696V36.7393V36.6088V36.4781V36.3472V36.2161V36.0848V35.9533V35.8215V35.6896V35.5575V35.4252V35.2927V35.16V35.0272V34.8941V34.7609V34.6275V34.494V34.3602V34.2263V34.0923V33.958V33.8237V33.6891V33.5544V33.4196V33.2846V33.1495V33.0142V32.8788V32.7432V32.6075V32.4717V32.3358V32.1997V32.0635V31.9272V31.7908V31.6542V31.5176V31.3808V31.244V31.107V30.9699V30.8327V30.6955V30.5581V30.4207V30.2831V30.1455V30.0078V29.87V29.7322V29.5942V29.4562V29.3182V29.18V29.0418V28.9036V28.7652V28.6269V28.4885V28.35V28.2115V28.0729V27.9343V27.7957V27.657V27.5183V27.3795V27.2408V27.102V26.9632V26.8244V26.6855V26.5467V26.4078V26.2689V26.13V25.9911V25.8523V25.7134V25.5745V25.4356V25.2968V25.1579V25.0191V24.8803V24.7415V24.6027V24.464V24.3253V24.1866V24.048V23.9094V23.7709V23.6323V23.4939V23.3555V23.2171V23.0788V22.9405V22.8024V22.6642V22.5262V22.3882V22.2503V22.1124V21.9746V21.8369V21.6993V21.5618V21.4244V21.287V21.1498V21.0126V20.8756V20.7386V20.6018V20.465V20.3284V20.1918V20.0554V19.9191V19.783V19.6469V19.511V19.3752V19.2395V19.104V18.9686V18.8334V18.6982V18.5633V18.4285V18.2938V18.1593V18.0249V17.8907V17.7567V17.6228V17.4891V17.3556V17.2222V17.089V16.956V16.8231V16.6905V16.558V16.4258V16.2937V16.1618V16.0301V15.8986V15.7673V15.6362V15.5053V15.3747V15.2442V15.114V14.9839V14.8541V14.7246V14.5952V14.4661V14.3372V14.2086V14.0802V13.952V13.8241V13.6964V13.5689V13.4417V13.3148V13.1881V13.0617V12.9356V12.8097V12.6841V12.5587V12.4337V12.3089V12.1843V12.0601V11.9362V11.8125V11.6891V11.566V11.4432V11.3207V11.1986V11.0767V10.9551V10.8338V10.7128V10.5922V10.4719V10.3519V10.2322V10.1128V9.99378V9.87507V9.7567V9.63867V9.52097V9.40362V9.28661V9.16995V9.05363V8.93767V8.82207V8.70682V8.59193V8.47741V8.36325V8.24947V8.13605V8.02301V7.91034V7.79806V7.68615V7.57464V7.46351V7.35277V7.24242V7.13247V7.02292V6.91377V6.80503V6.69669V6.58876V6.48125V6.37415V6.26747V6.16121V6.05537V5.94996V5.84498V5.74043V5.63631V5.53263V5.42939V5.3266V5.22425V5.12234V5.02089V4.91989V4.81935V4.71927V4.61964V4.52049V4.4218V4.36995L171.242 16.5208C171.547 16.794 172.968 18.2194 172.968 20.2258ZM118.842 49.2599L118.813 49.2839L118.785 49.3087C114.98 52.6587 106.517 61.997 104.881 79.4221L104.881 79.4262C104.742 80.9255 104.311 84.3331 103.07 88.1945C101.822 92.0764 99.8171 96.2234 96.6473 99.3898L96.6435 99.3936C90.6897 105.362 83.6763 108.434 75.7127 108.666C63.3222 108.979 55.8889 103.482 51.5194 98.1319C51.0073 97.5049 50.9464 96.8333 51.5339 95.9264C52.196 94.9042 53.5393 93.9745 55.0708 93.736C60.4463 92.8989 66.7811 90.6395 72.9969 85.5012L73.0091 85.4911L73.0212 85.4809C74.5649 84.1771 85.4328 74.282 87.3495 54.0026L87.3518 53.9777L87.3538 53.9528C87.6493 50.1504 88.9054 43.0699 93.8604 37.1325L93.8663 37.1254L93.8721 37.1183C98.1206 31.9637 105.527 25.9653 116.904 25.9653C129.767 25.9653 137.06 31.798 141.13 37.1407C141.608 37.7675 141.626 38.3888 141.132 39.1494C140.565 40.0235 139.395 40.8266 137.996 41.0056C132.403 41.7212 125.582 43.7547 119.408 48.7864L119.393 48.7987L119.378 48.8112L118.842 49.2599Z" stroke="black" stroke-width="6"/>
</g>
<path d="M144 146C137.373 146 132 140.627 132 134C132 127.373 137.373 122 144 122" stroke="black" stroke-width="6" stroke-linecap="round"/>
<path d="M164 146C157.373 146 152 140.627 152 134C152 127.373 157.373 122 164 122" stroke="black" stroke-width="6" stroke-linecap="round"/>
</g>
<defs>
<clipPath id="clip0_0_1">
<rect width="192" height="192" fill="white"/>
</clipPath>
<clipPath id="clip1_0_1">
<rect width="160" height="136" fill="white" transform="translate(16)"/>
</clipPath>
</defs>
</svg>
