<svg width="192" height="192" viewBox="0 0 192 192" fill="none" xmlns="http://www.w3.org/2000/svg">
<path d="M96.0574 19.4458C138.326 19.4458 172.669 53.6741 172.669 96.0574C172.669 138.326 138.441 172.669 96.0574 172.669C53.6741 172.554 19.4458 138.326 19.4458 96.0574C19.4458 53.6741 53.6741 19.4458 96.0574 19.4458Z" stroke="black" stroke-width="12"/>
<mask id="path-2-inside-1_31_124" fill="white">
<path d="M96.0574 176C51.8363 176 16 140.164 16 96.0574C16 51.9512 51.8363 16 96.0574 16C140.279 16 176.115 51.8363 176.115 96.0574C176 140.164 140.164 176 96.0574 176ZM96.0574 22.8916C55.6267 22.8916 22.8916 55.6267 22.8916 96.0574C22.8916 136.488 55.6267 169.223 96.0574 169.223C136.488 169.223 169.223 136.488 169.223 96.0574C169.223 55.6267 136.373 22.8916 96.0574 22.8916Z"/>
</mask>
<path d="M176.115 96.0574L188.115 96.0887L188.115 96.0731V96.0574H176.115ZM96.0574 164C58.4525 164 28 133.525 28 96.0574H4C4 146.802 45.2201 188 96.0574 188V164ZM28 96.0574C28 58.5674 58.4749 28 96.0574 28V4C45.1977 4 4 45.335 4 96.0574H28ZM96.0574 28C133.651 28 164.115 58.4637 164.115 96.0574H188.115C188.115 45.2089 146.906 4 96.0574 4V28ZM164.115 96.0262C164.017 133.535 133.53 164 96.0574 164V188C146.797 188 187.983 146.792 188.115 96.0887L164.115 96.0262ZM96.0574 10.8916C48.9993 10.8916 10.8916 48.9993 10.8916 96.0574H34.8916C34.8916 62.2541 62.2541 34.8916 96.0574 34.8916V10.8916ZM10.8916 96.0574C10.8916 143.116 48.9993 181.223 96.0574 181.223V157.223C62.2541 157.223 34.8916 129.861 34.8916 96.0574H10.8916ZM96.0574 181.223C143.116 181.223 181.223 143.116 181.223 96.0574H157.223C157.223 129.861 129.861 157.223 96.0574 157.223V181.223ZM181.223 96.0574C181.223 48.987 142.988 10.8916 96.0574 10.8916V34.8916C129.758 34.8916 157.223 62.2664 157.223 96.0574H181.223Z" fill="black" mask="url(#path-2-inside-1_31_124)"/>
<path d="M95 106C97.3364 105.996 99.583 106.9 101.265 108.522C102.946 110.144 103.931 112.357 104.011 114.692C104.091 117.027 103.26 119.302 101.693 121.035C100.127 122.768 97.9473 123.824 95.616 123.98L95 124H92V131C92 131.725 91.7374 132.425 91.2609 132.972C90.7844 133.518 90.1262 133.873 89.408 133.972L89 134C88.275 134 87.5746 133.738 87.0283 133.261C86.4819 132.785 86.1266 132.126 86.028 131.408L86 131V109C86 108.275 86.2626 107.575 86.7391 107.028C87.2156 106.482 87.8738 106.127 88.592 106.028L89 106H95ZM120 106C122.122 106 124.157 106.843 125.657 108.343C127.157 109.844 128 111.878 128 114C128 114.76 127.711 115.492 127.192 116.047C126.673 116.603 125.963 116.94 125.204 116.992C124.446 117.044 123.696 116.806 123.107 116.326C122.517 115.847 122.132 115.161 122.028 114.408L122 114C122 113.532 121.836 113.079 121.536 112.719C121.237 112.359 120.82 112.116 120.36 112.032L120 112H117.5C116.87 112.001 116.263 112.241 115.802 112.67C115.341 113.099 115.058 113.687 115.012 114.316C114.965 114.944 115.158 115.567 115.551 116.06C115.944 116.552 116.509 116.878 117.132 116.972L117.5 117H119.5C121.706 116.993 123.828 117.845 125.418 119.374C127.008 120.903 127.941 122.991 128.02 125.196C128.099 127.401 127.318 129.55 125.841 131.189C124.365 132.828 122.309 133.829 120.108 133.98L119.5 134H117C115.949 134 114.909 133.793 113.939 133.391C112.968 132.989 112.086 132.4 111.343 131.657C110.6 130.914 110.011 130.032 109.609 129.062C109.207 128.091 109 127.051 109 126C109 125.24 109.289 124.508 109.808 123.953C110.327 123.398 111.037 123.06 111.796 123.008C112.554 122.956 113.304 123.194 113.893 123.674C114.483 124.153 114.868 124.839 114.972 125.592L115 126C115 126.468 115.164 126.922 115.464 127.281C115.763 127.641 116.18 127.884 116.64 127.968L117 128H119.5C120.13 127.999 120.737 127.76 121.198 127.33C121.659 126.901 121.942 126.313 121.988 125.685C122.035 125.056 121.842 124.433 121.449 123.941C121.056 123.448 120.491 123.122 119.868 123.028L119.5 123H117.5C115.294 123.007 113.172 122.155 111.582 120.626C109.992 119.097 109.059 117.009 108.98 114.804C108.901 112.6 109.682 110.45 111.159 108.811C112.635 107.172 114.691 106.171 116.892 106.02L117.5 106H120ZM79 106C79.7601 106 80.4918 106.289 81.0472 106.808C81.6026 107.327 81.9403 108.037 81.9921 108.796C82.0439 109.554 81.8059 110.304 81.3263 110.893C80.8466 111.483 80.161 111.868 79.408 111.972L79 112L70 111.996V118.008H77C77.7655 118 78.505 118.285 79.0671 118.805C79.6292 119.325 79.9714 120.04 80.0235 120.804C80.0757 121.567 79.8339 122.322 79.3476 122.913C78.8614 123.505 78.1675 123.888 77.408 123.984L77 124.012L70 124.008V130.928C69.999 131.652 69.736 132.352 69.2596 132.897C68.7832 133.443 68.1255 133.798 67.408 133.896L67 133.924C66.275 133.924 65.5746 133.662 65.0283 133.185C64.4819 132.709 64.1266 132.05 64.028 131.332L64 130.924V109C64 108.275 64.2626 107.575 64.7391 107.028C65.2156 106.482 65.8738 106.127 66.592 106.028L67 106H79ZM95 112H92V118H95C95.7601 118 96.4918 117.711 97.0472 117.192C97.6026 116.673 97.9403 115.963 97.9921 115.205C98.0439 114.446 97.8059 113.697 97.3263 113.107C96.8466 112.517 96.161 112.132 95.408 112.028L95 112ZM124 58.0001C127.061 57.9999 130.006 59.1694 132.233 61.2692C134.46 63.3691 135.8 66.2405 135.98 69.2961L136 70.0001V86.0001C136.003 89.1237 134.788 92.1254 132.613 94.3673C130.438 96.6093 127.474 97.9148 124.352 98.0065C121.23 98.0981 118.195 96.9687 115.892 94.8582C113.589 92.7477 112.2 89.8225 112.02 86.7041L112 86.0001V70.0001C112 66.8175 113.264 63.7652 115.515 61.5148C117.765 59.2644 120.817 58.0001 124 58.0001ZM68 58.0001C71.0608 57.9999 74.0061 59.1694 76.233 61.2692C78.46 63.3691 79.8004 66.2405 79.98 69.2961L80 70.0001V70.6921C80 77.1321 75.884 82.8121 69.84 84.8521L69.076 85.0881C66.876 85.7001 65.172 87.3361 64.42 89.3921L64.228 90.0001H76C76.9797 90.0002 77.9253 90.3599 78.6575 91.0109C79.3896 91.662 79.8574 92.5591 79.972 93.5321L80 94.0001C79.9999 94.9798 79.6402 95.9254 78.9891 96.6576C78.3381 97.3897 77.441 97.8574 76.468 97.9721L76 98.0001H60C59.0203 97.9999 58.0747 97.6403 57.3425 96.9892C56.6104 96.3382 56.1426 95.4411 56.028 94.4681L56 94.0001V91.7761C56 85.3361 60.116 79.6561 66.16 77.6161L66.924 77.3841C68.2826 77.0045 69.4933 76.2201 70.3951 75.1354C71.2969 74.0507 71.8469 72.7171 71.972 71.3121L72 70.6921V70.0001C71.9989 68.9806 71.6085 68 70.9086 67.2586C70.2087 66.5173 69.2522 66.0711 68.2344 66.0114C67.2167 65.9516 66.2145 66.2828 65.4327 66.9371C64.6509 67.5915 64.1484 68.5197 64.028 69.5321L64 70.0001C64 71.0609 63.5786 72.0784 62.8284 72.8285C62.0783 73.5787 61.0609 74.0001 60 74.0001C58.9391 74.0001 57.9217 73.5787 57.1716 72.8285C56.4214 72.0784 56 71.0609 56 70.0001C56 66.8175 57.2643 63.7652 59.5147 61.5148C61.7652 59.2644 64.8174 58.0001 68 58.0001ZM103.976 58.0001C104.957 57.9937 105.906 58.348 106.642 58.9955C107.379 59.643 107.852 60.5386 107.972 61.5121L108 61.9761L108.076 75.3321L108.092 75.6201V94.0001C108.091 95.0196 107.7 96.0002 107.001 96.7415C106.301 97.4829 105.344 97.929 104.326 97.9888C103.309 98.0485 102.306 97.7174 101.525 97.063C100.743 96.4087 100.24 95.4805 100.12 94.4681L100.092 94.0001V82.0001H88C87.0203 81.9999 86.0746 81.6403 85.3425 80.9892C84.6104 80.3382 84.1426 79.4411 84.028 78.4681L84 78.0001V62.0001C84.0021 60.9809 84.3932 60.001 85.0934 59.2604C85.7936 58.5198 86.7501 58.0744 87.7676 58.0152C88.785 57.956 89.7867 58.2874 90.5681 58.9417C91.3495 59.5961 91.8516 60.524 91.972 61.5361L92 62.0041V74.0001H100.068L100 62.0241C99.9937 61.0433 100.348 60.0943 100.995 59.3576C101.643 58.6209 102.538 58.1477 103.512 58.0281L103.976 58.0001ZM124 66.0001C123.02 66.0002 122.075 66.3599 121.343 67.0109C120.61 67.662 120.143 68.5591 120.028 69.5321L120 70.0001V86.0001C120.001 87.0196 120.392 88.0002 121.091 88.7416C121.791 89.4829 122.748 89.929 123.766 89.9888C124.783 90.0485 125.786 89.7174 126.567 89.063C127.349 88.4087 127.852 87.4805 127.972 86.4681L128 86.0001V70.0001C128 68.9392 127.579 67.9218 126.828 67.1717C126.078 66.4215 125.061 66.0001 124 66.0001Z" fill="#212121"/>
</svg>
