<svg width="192" height="192" viewBox="0 0 192 192" fill="none" xmlns="http://www.w3.org/2000/svg">
<g clip-path="url(#clip0_0_1)">
<path d="M8.16555 119.427C4.35817 119.427 1.46118 116.01 2.08474 112.254L8.49292 73.654C9.06255 70.2228 12.0303 67.7071 15.5084 67.7071H38.7783C41.92 67.7071 44.3073 70.5321 43.7834 73.6298C43.3703 76.0718 41.2551 77.8593 38.7783 77.8593H24.7773C22.1756 77.8593 19.9581 79.7467 19.5422 82.315C19.0201 85.5402 21.5102 88.4658 24.7773 88.4658H33.0838C36.2324 88.4658 38.6254 91.2964 38.1015 94.4012C37.6882 96.8503 35.5675 98.6438 33.0838 98.6438H22.8619C19.3818 98.6438 16.4129 101.161 15.8455 104.595L14.2472 114.268C13.7553 117.244 11.182 119.427 8.16555 119.427ZM56.3064 67.7071C60.1149 67.7071 63.0127 71.1257 62.3891 74.8829L55.85 114.271C55.3562 117.246 52.783 119.427 49.7673 119.427C45.9587 119.427 43.0608 116.009 43.6846 112.252L50.2238 72.8632C50.7177 69.8883 53.2907 67.7071 56.3064 67.7071ZM70.4407 73.654C71.0103 70.2228 73.9781 67.7071 77.4562 67.7071H81.3263C84.6034 67.7071 87.4562 69.9464 88.2344 73.1298L94.6539 99.3905C94.7025 99.5896 94.8815 99.7295 95.0866 99.7295C95.2454 99.7295 95.3924 99.6442 95.4718 99.5067L111.727 71.2705C112.997 69.0659 115.347 67.7071 117.891 67.7071H120.87C125.263 67.7071 128.605 71.65 127.886 75.9832L121.507 114.406C121.026 117.303 118.521 119.427 115.584 119.427C111.876 119.427 109.054 116.098 109.662 112.439L113.732 87.9405C113.757 87.7925 113.643 87.6577 113.492 87.6577C113.405 87.6577 113.324 87.7052 113.28 87.7819L97.3267 116.238C96.3358 118.005 94.4679 119.099 92.4417 119.099C89.8259 119.099 87.5587 117.288 86.98 114.737L80.8434 87.6843C80.8164 87.5654 80.7108 87.481 80.5888 87.481C80.4613 87.481 80.3524 87.5731 80.3314 87.6988L75.8546 114.412C75.3694 117.307 72.8641 119.427 69.9293 119.427C66.2183 119.427 63.3946 116.097 64.0024 112.435L70.4407 73.654ZM181.453 94.3752C180.51 99.9476 178.659 104.654 175.897 108.492C173.153 112.314 169.811 115.21 165.871 117.18C161.949 119.15 157.732 120.135 153.22 120.135C148.455 120.135 144.33 119.074 140.844 116.952C137.36 114.831 134.826 111.742 133.243 107.684C131.678 103.627 131.374 98.7019 132.334 92.9105C133.243 87.3378 135.07 82.6238 137.815 78.7683C140.575 74.913 143.934 71.9919 147.891 70.0053C151.864 68.0018 156.123 67 160.669 67C165.4 67 169.499 68.0691 172.968 70.2073C176.453 72.3455 178.979 75.4517 180.544 79.526C182.11 83.6003 182.412 88.5501 181.453 94.3752ZM168.953 92.9105C169.474 89.6613 169.474 86.9254 168.953 84.703C168.448 82.4807 167.454 80.8056 165.973 79.6775C164.491 78.5327 162.563 77.9602 160.189 77.9602C157.562 77.9602 155.189 78.6085 153.068 79.9048C150.963 81.1844 149.204 83.0531 147.79 85.5111C146.376 87.9524 145.391 90.9071 144.835 94.3752C144.263 97.6583 144.246 100.394 144.784 102.582C145.34 104.772 146.376 106.421 147.891 107.533C149.405 108.627 151.334 109.174 153.673 109.174C156.283 109.174 158.631 108.543 160.72 107.28C162.807 106.017 164.549 104.174 165.947 101.749C167.362 99.3253 168.363 96.3788 168.953 92.9105Z" fill="black"/>
</g>
<defs>
<clipPath id="clip0_0_1">
<rect width="192" height="192" fill="white"/>
</clipPath>
</defs>
</svg>
