<svg width="192" height="192" viewBox="0 0 192 192" fill="none" xmlns="http://www.w3.org/2000/svg">
<g clip-path="url(#clip0_31_122)">
<g clip-path="url(#clip1_31_122)">
<mask id="mask0_31_122" style="mask-type:luminance" maskUnits="userSpaceOnUse" x="16" y="16" width="160" height="160">
<path d="M176 16H16V176H176V16Z" fill="white"/>
</mask>
<g mask="url(#mask0_31_122)">
<path d="M87.7273 18.6021C90.4278 16.488 94.0469 15.5674 97.4241 16.1928C100.879 16.7628 104.023 18.924 105.819 21.9259C107.988 25.4836 108.212 30.1669 106.29 33.8783C109.614 35.7299 112.934 37.5856 116.27 39.4146C116.182 42.962 115.897 46.5011 115.757 50.0485C122.174 52.8412 128.594 55.6258 135.014 58.4104C134.796 63.3439 134.503 68.2712 134.276 73.2026C134.196 73.6886 134.019 74.152 133.945 74.64C133.978 74.2955 134.023 73.9531 134.066 73.6127C125.35 71.9621 116.633 70.2991 107.916 68.6464C106.709 100.78 105.628 132.913 104.48 165.05C104.431 167.427 104.236 169.801 104.283 172.18C101.326 173.478 98.3447 174.718 95.3797 176C92.8371 174.6 90.2248 173.326 87.594 172.104C86.0151 138.382 84.5408 104.657 82.8615 70.9389C82.8122 70.1946 82.8553 69.4338 82.64 68.71C74.2925 70.1576 66.0228 72.0174 57.7019 73.5963L57.6732 73.6004C57.0888 68.2179 56.5372 62.8292 56 57.4405C61.8993 55.3223 67.8334 53.2985 73.7204 51.1455C74.3109 50.9199 74.9158 50.7292 75.4817 50.4422C75.2951 47.0527 74.9445 43.6653 74.477 40.3066C77.8213 38.2807 81.2723 36.4311 84.6351 34.4339C83.0686 31.877 82.6708 28.7151 83.2511 25.7993C83.8313 22.9717 85.4389 20.3655 87.7273 18.6021ZM90.518 19.937C88.1312 21.2308 86.3575 23.5827 85.7506 26.2258C85.1806 28.5716 85.5476 31.1224 86.7328 33.2221C89.6999 31.5161 92.6649 29.808 95.6319 28.102C97.9408 29.3856 100.254 30.6631 102.565 31.9467C103.008 32.1887 103.436 32.4655 103.922 32.6234C104.994 30.3432 105.152 27.6571 104.328 25.2744C103.35 22.3237 100.842 19.9452 97.8506 19.1086C95.4228 18.4032 92.7243 18.7026 90.518 19.937Z" fill="black"/>
</g>
</g>
</g>
<defs>
<clipPath id="clip0_31_122">
<rect width="192" height="192" fill="white"/>
</clipPath>
<clipPath id="clip1_31_122">
<rect width="160" height="160" fill="white" transform="translate(16 16)"/>
</clipPath>
</defs>
</svg>
